<svg id="Layer_1" data-name="Layer 1" xmlns="http://www.w3.org/2000/svg" viewBox="0 0 419.93 483.15"><defs><style>.cls-1{fill:#89cfbf;}.cls-2{fill:#fff;stroke:#231f20;stroke-miterlimit:10;}.cls-3{fill:#ae344f;}.cls-4{fill:#f6e9be;}.cls-5{fill:#efa5b1;}.cls-6{fill:#f7ebbf;}</style></defs><title>2D-logo-dragon</title><path class="cls-1" d="M175.81,261.86a15.08,15.08,0,0,1,11.61-5.5H291.69A15.6,15.6,0,0,1,307,272.21V380a16.09,16.09,0,0,1-4.38,11.1Z" transform="translate(-175.81 -65.93)"/><path class="cls-2" d="M359.42,407.05" transform="translate(-175.81 -65.93)"/><path class="cls-1" d="M403.39,405.05h28.14a15.09,15.09,0,0,1,11.6,5.49L316.31,539.78a16.08,16.08,0,0,1-4.39-11.1V420.89a15.59,15.59,0,0,1,15.33-15.84h76.14Z" transform="translate(-175.81 -65.93)"/><path class="cls-2" d="M455.44,475.19" transform="translate(-175.81 -65.93)"/><path class="cls-1" d="M456.78,504.78v28.43a15.61,15.61,0,0,0,15.33,15.86H576.39a15.09,15.09,0,0,0,11.6-5.49L461.17,414.2a16.13,16.13,0,0,0-4.39,11.11v79.47Z" transform="translate(-175.81 -65.93)"/><path class="cls-1" d="M552.16,399.64h28.25a15.6,15.6,0,0,0,15.33-15.85V276a16.09,16.09,0,0,0-4.38-11.1L464.53,394.15a15.11,15.11,0,0,0,11.61,5.49h76Z" transform="translate(-175.81 -65.93)"/><path class="cls-3" d="M588,261.86a15.06,15.06,0,0,0-11.6-5.5H472.11a15.6,15.6,0,0,0-15.33,15.85V380a16.1,16.1,0,0,0,4.39,11.1Z" transform="translate(-175.81 -65.93)"/><path class="cls-3" d="M316.31,264.9a16.1,16.1,0,0,0-4.39,11.1V383.79a15.6,15.6,0,0,0,15.33,15.85H363v16.87a10.61,10.61,0,0,0,10.61,10.61h15.52a10.61,10.61,0,0,0,10.61-10.61V399.64h31.76a15.09,15.09,0,0,0,11.6-5.49Z" transform="translate(-175.81 -65.93)"/><path class="cls-3" d="M580.41,404.91h-31.9V390.83a10.61,10.61,0,0,0-10.61-10.61H522.38a10.61,10.61,0,0,0-10.61,10.61v14.08H476.14a15.08,15.08,0,0,0-11.61,5.5L591.36,539.65a16.09,16.09,0,0,0,4.38-11.1V420.76A15.6,15.6,0,0,0,580.41,404.91Z" transform="translate(-175.81 -65.93)"/><path class="cls-3" d="M466.28,463.34h-15.4v-37.9a16.08,16.08,0,0,0-4.38-11.1L319.67,543.58a15.07,15.07,0,0,0,11.61,5.49H435.55a15.59,15.59,0,0,0,15.33-15.84V500.08h15.4a10.61,10.61,0,0,0,10.61-10.61V474A10.61,10.61,0,0,0,466.28,463.34Z" transform="translate(-175.81 -65.93)"/><path class="cls-3" d="M286.77,305.28h16.74a10,10,0,0,1,10,10v13.77a0,0,0,0,1,0,0H276.77a0,0,0,0,1,0,0V315.28A10,10,0,0,1,286.77,305.28Z" transform="translate(-197.84 546.38) rotate(-90)"/><line class="cls-4" x1="136.11" y1="188.31" x2="136.11" y2="190.44"/><path class="cls-5" d="M311.92,256.36" transform="translate(-175.81 -65.93)"/><path class="cls-6" d="M317.39,65.93A15.28,15.28,0,0,0,313,76.7V181.34a15.39,15.39,0,0,0,15.39,15.38H433a15.36,15.36,0,0,0,11.65-5.33Zm39.74,95a12.18,12.18,0,1,1,12.17-12.18A12.18,12.18,0,0,1,357.13,160.92Z" transform="translate(-175.81 -65.93)"/><path class="cls-2" d="M251.62,144.73" transform="translate(-175.81 -65.93)"/><path class="cls-5" d="M445.65,201.37l-53.83.38a7.86,7.86,0,0,0-1-.06l-43.55.31c-.17,0-.34,0-.53,0l-23.74.17c-5.68,0-10.24,6.14-8.2,11l8.52,20.19c2,4.84,9.15,4.79,12.79-.09l6.28-8.4,11.24,26.67c2,4.84,9.15,4.79,12.79-.09l16-21.42,15.09,35.8c2,4.84,9.15,4.79,12.79-.09l39.93-53.43C453.89,207.38,451.34,201.33,445.65,201.37Z" transform="translate(-175.81 -65.93)"/><path class="cls-4" d="M450.12,220.82l-40.35,54c-3.68,4.93-10.86,5-12.92.09l-15.26-36.17-16.16,21.64c-3.69,4.93-10.87,5-12.93.09l-11.35-26.95L334.8,242c-3.68,4.93-10.86,5-12.92.09l-8.61-20.41a6.41,6.41,0,0,1-.45-1.73v34.49L447.39,391.32a16.06,16.06,0,0,0,4.39-11.1V217.74h-.17A8.66,8.66,0,0,1,450.12,220.82Z" transform="translate(-175.81 -65.93)"/><path class="cls-5" d="M407.33,147.28l17.35,16.91a3.17,3.17,0,0,0,.3.34l14,13.68.16.18,7.65,7.46c1.83,1.78,5.22,1.27,6.1-.92l3.66-9.16c.88-2.19-1.41-4.43-4.12-4l-4.67.7,4.84-12.09c.88-2.19-1.41-4.43-4.12-4l-11.9,1.79,6.5-16.23c.88-2.2-1.41-4.43-4.12-4l-29.69,4.46C406.6,142.75,405.5,145.49,407.33,147.28Z" transform="translate(-175.81 -65.93)"/></svg>